<svg width="781" height="160" viewBox="0 0 781 160" fill="none" xmlns="http://www.w3.org/2000/svg">
<path d="M89.2425 122.824C89.2425 124.275 84.9332 125 76.3145 125C67.6958 125 63.3865 124.275 63.3865 122.824V93.384H45.4665V122.824C45.4665 124.275 41.1571 125 32.5385 125C23.9198 125 19.6105 124.275 19.6105 122.824V37.96C19.6105 36.168 23.9198 35.272 32.5385 35.272C41.1571 35.272 45.4665 36.168 45.4665 37.96V68.04H63.3865V38.216C63.3865 37.0213 65.5198 36.168 69.7865 35.656C72.0051 35.4853 74.1811 35.4 76.3145 35.4L82.8425 35.656C87.1092 36.168 89.2425 37.0213 89.2425 38.216V122.824ZM109.409 78.536C107.02 74.2693 105.825 70.8133 105.825 68.168C105.825 65.4373 106.551 63.688 108.001 62.92C112.865 60.7867 119.521 59.72 127.969 59.72C136.503 59.72 142.519 61.7253 146.017 65.736C149.516 69.6613 151.265 75.5067 151.265 83.272V103.496H155.617C157.068 103.496 158.177 104.349 158.945 106.056C159.799 107.763 160.225 110.109 160.225 113.096C160.225 116.083 159.457 119.027 157.921 121.928C156.471 124.829 154.465 126.28 151.905 126.28C147.297 126.28 143.585 125.043 140.769 122.568C139.489 121.544 138.508 120.307 137.825 118.856C133.9 123.805 127.799 126.28 119.521 126.28C113.292 126.28 108.044 124.061 103.777 119.624C99.5108 115.187 97.3775 109.939 97.3775 103.88C97.3775 89.9707 105.697 83.016 122.337 83.016H129.377V81.736C129.377 79.5173 128.993 78.1093 128.225 77.512C127.543 76.8293 125.879 76.488 123.233 76.488C119.991 76.488 115.383 77.1707 109.409 78.536ZM119.649 102.088C119.649 103.965 120.161 105.416 121.185 106.44C122.209 107.379 123.489 107.848 125.025 107.848C126.647 107.848 128.097 107.208 129.377 105.928V96.072H125.793C121.697 96.072 119.649 98.0773 119.649 102.088ZM195.502 124.872C195.502 125.469 191.62 125.768 183.854 125.768C176.089 125.597 172.206 125.256 172.206 124.744V82.248H168.75C167.385 82.248 166.276 81.4373 165.422 79.816C164.654 78.1093 164.27 76.0187 164.27 73.544C164.27 64.328 167.001 59.72 172.462 59.72C176.302 59.72 179.502 60.9147 182.062 63.304C184.622 65.608 185.902 68.2533 185.902 71.24C187.694 67.7413 190.084 64.968 193.07 62.92C196.142 60.7867 199.257 59.72 202.414 59.72C207.364 59.72 210.35 61 211.374 63.56C211.63 64.2427 211.758 65.2667 211.758 66.632C211.758 67.912 211.332 70.2587 210.478 73.672C209.71 77.0853 208.9 79.56 208.046 81.096C207.193 82.632 206.681 83.4 206.51 83.4C206.34 83.4 205.529 83.1013 204.078 82.504C202.713 81.8213 201.476 81.48 200.366 81.48C197.124 81.48 195.502 84.04 195.502 89.16V124.872ZM246.252 124.872C246.252 125.469 242.37 125.768 234.604 125.768C226.839 125.597 222.956 125.256 222.956 124.744V82.248H219.5C218.135 82.248 217.026 81.4373 216.172 79.816C215.404 78.1093 215.02 76.0187 215.02 73.544C215.02 64.328 217.751 59.72 223.212 59.72C227.052 59.72 230.252 60.9147 232.812 63.304C235.372 65.608 236.652 68.2533 236.652 71.24C238.444 67.7413 240.834 64.968 243.82 62.92C246.892 60.7867 250.007 59.72 253.164 59.72C258.114 59.72 261.1 61 262.124 63.56C262.38 64.2427 262.508 65.2667 262.508 66.632C262.508 67.912 262.082 70.2587 261.228 73.672C260.46 77.0853 259.65 79.56 258.796 81.096C257.943 82.632 257.431 83.4 257.26 83.4C257.09 83.4 256.279 83.1013 254.828 82.504C253.463 81.8213 252.226 81.48 251.116 81.48C247.874 81.48 246.252 84.04 246.252 89.16V124.872ZM264.49 61.64C264.49 60.7013 268.373 60.232 276.138 60.232C283.989 60.232 288.042 60.6587 288.298 61.512L297.514 91.72L306.346 61.256C306.688 60.5733 309.333 60.232 314.282 60.232C325.632 60.232 331.05 60.7867 330.538 61.896L300.458 147.528C300.373 148.04 298.026 148.296 293.418 148.296C288.896 148.296 284.672 148.125 280.746 147.784C276.821 147.528 274.944 147.187 275.114 146.76L286.25 119.88L264.49 61.64ZM340.408 101.96C347.32 106.141 352.782 108.232 356.792 108.232C359.352 108.232 360.632 107.336 360.632 105.544C360.632 104.264 358.414 102.6 353.976 100.552C343.31 96.2 337.976 89.0747 337.976 79.176C337.976 72.8613 340.28 68.04 344.888 64.712C349.496 61.384 355 59.72 361.4 59.72C367.886 59.72 373.347 60.4027 377.784 61.768C382.307 63.1333 384.568 64.9253 384.568 67.144C384.568 69.0213 383.63 71.496 381.752 74.568C379.96 77.64 378.723 79.304 378.04 79.56C374.371 77.512 370.403 76.488 366.136 76.488C363.832 76.488 362.68 77.2987 362.68 78.92C362.68 79.944 363.107 80.84 363.96 81.608C364.899 82.2907 366.563 83.1867 368.952 84.296C371.342 85.32 373.304 86.2587 374.84 87.112C376.462 87.9653 378.254 89.16 380.216 90.696C384.312 93.9387 386.36 98.1627 386.36 103.368C386.36 110.195 384.099 115.741 379.576 120.008C375.054 124.189 368.227 126.28 359.096 126.28C353.038 126.28 347.534 125.256 342.584 123.208C337.635 121.16 335.16 118.344 335.16 114.76C335.16 112.371 335.715 109.853 336.824 107.208C338.019 104.563 339.214 102.813 340.408 101.96Z" fill="#007D9F"/>
<path d="M63.3865 93.384H66.3865C66.3865 91.7271 65.0433 90.384 63.3865 90.384V93.384ZM45.4665 93.384V90.384C43.8096 90.384 42.4665 91.7271 42.4665 93.384H45.4665ZM45.4665 68.04H42.4665C42.4665 69.6969 43.8096 71.04 45.4665 71.04V68.04ZM63.3865 68.04V71.04C65.0433 71.04 66.3865 69.6969 66.3865 68.04H63.3865ZM69.7865 35.656L69.5564 32.6648C69.5139 32.6681 69.4714 32.6723 69.429 32.6774L69.7865 35.656ZM76.3145 35.4L76.432 32.4023C76.3929 32.4008 76.3537 32.4 76.3145 32.4V35.4ZM82.8425 35.656L83.1999 32.6774C83.1202 32.6678 83.0402 32.6614 82.96 32.6583L82.8425 35.656ZM89.2425 122.824H86.2425C86.2425 121.431 87.3246 120.976 87.0822 121.098C86.9476 121.166 86.4919 121.333 85.5125 121.498C83.6129 121.817 80.5846 122 76.3145 122V125V128C80.663 128 84.0987 127.82 86.5084 127.414C87.6837 127.217 88.844 126.93 89.7867 126.454C90.6217 126.032 92.2425 124.942 92.2425 122.824H89.2425ZM76.3145 125V122C72.0444 122 69.0161 121.817 67.1164 121.498C66.137 121.333 65.6814 121.166 65.5467 121.098C65.3044 120.976 66.3865 121.431 66.3865 122.824H63.3865H60.3865C60.3865 124.942 62.0073 126.032 62.8422 126.454C63.7849 126.93 64.9453 127.217 66.1205 127.414C68.5302 127.82 71.9659 128 76.3145 128V125ZM63.3865 122.824H66.3865V93.384H63.3865H60.3865V122.824H63.3865ZM63.3865 93.384V90.384H45.4665V93.384V96.384H63.3865V93.384ZM45.4665 93.384H42.4665V122.824H45.4665H48.4665V93.384H45.4665ZM45.4665 122.824H42.4665C42.4665 121.431 43.5486 120.976 43.3062 121.098C43.1716 121.166 42.7159 121.333 41.7365 121.498C39.8369 121.817 36.8086 122 32.5385 122V125V128C36.887 128 40.3227 127.82 42.7324 127.414C43.9077 127.217 45.068 126.93 46.0107 126.454C46.8457 126.032 48.4665 124.942 48.4665 122.824H45.4665ZM32.5385 125V122C28.2684 122 25.2401 121.817 23.3404 121.498C22.361 121.333 21.9054 121.166 21.7707 121.098C21.5284 120.976 22.6105 121.431 22.6105 122.824H19.6105H16.6105C16.6105 124.942 18.2313 126.032 19.0662 126.454C20.0089 126.93 21.1693 127.217 22.3445 127.414C24.7542 127.82 28.1899 128 32.5385 128V125ZM19.6105 122.824H22.6105V37.96H19.6105H16.6105V122.824H19.6105ZM19.6105 37.96H22.6105C22.6105 38.9458 21.9442 39.3681 22.0062 39.3294C22.1023 39.2695 22.5067 39.078 23.4532 38.8812C25.2971 38.4978 28.2788 38.272 32.5385 38.272V35.272V32.272C28.1795 32.272 24.6972 32.4942 22.2318 33.0068C21.0236 33.258 19.812 33.6265 18.8307 34.2386C17.8154 34.8719 16.6105 36.0782 16.6105 37.96H19.6105ZM32.5385 35.272V38.272C36.7982 38.272 39.7799 38.4978 41.6238 38.8812C42.5703 39.078 42.9747 39.2695 43.0707 39.3294C43.1327 39.3681 42.4665 38.9458 42.4665 37.96H45.4665H48.4665C48.4665 36.0782 47.2615 34.8719 46.2462 34.2386C45.265 33.6265 44.0533 33.258 42.8452 33.0068C40.3798 32.4942 36.8974 32.272 32.5385 32.272V35.272ZM45.4665 37.96H42.4665V68.04H45.4665H48.4665V37.96H45.4665ZM45.4665 68.04V71.04H63.3865V68.04V65.04H45.4665V68.04ZM63.3865 68.04H66.3865V38.216H63.3865H60.3865V68.04H63.3865ZM63.3865 38.216H66.3865C66.3865 38.9204 66.0373 39.3819 65.8641 39.5482C65.742 39.6654 65.7485 39.6063 66.1007 39.4654C66.7982 39.1864 68.0867 38.8815 70.1439 38.6346L69.7865 35.656L69.429 32.6774C67.2196 32.9425 65.3081 33.3202 63.8723 33.8946C63.1578 34.1804 62.3643 34.5906 61.7089 35.2198C61.0023 35.8981 60.3865 36.9142 60.3865 38.216H63.3865ZM69.7865 35.656L70.0166 38.6472C72.162 38.4821 74.2611 38.4 76.3145 38.4V35.4V32.4C74.1012 32.4 71.8483 32.4885 69.5564 32.6648L69.7865 35.656ZM76.3145 35.4L76.1969 38.3977L82.7249 38.6537L82.8425 35.656L82.96 32.6583L76.432 32.4023L76.3145 35.4ZM82.8425 35.656L82.485 38.6346C84.5423 38.8815 85.8308 39.1864 86.5283 39.4654C86.8804 39.6063 86.887 39.6654 86.7649 39.5482C86.5917 39.3819 86.2425 38.9204 86.2425 38.216H89.2425H92.2425C92.2425 36.9142 91.6266 35.8981 90.9201 35.2198C90.2646 34.5906 89.4712 34.1804 88.7567 33.8946C87.3208 33.3202 85.4094 32.9425 83.1999 32.6774L82.8425 35.656ZM89.2425 38.216H86.2425V122.824H89.2425H92.2425V38.216H89.2425ZM109.409 78.536L106.792 80.0018C107.442 81.1632 108.78 81.7572 110.078 81.4606L109.409 78.536ZM108.001 62.92L106.796 60.1726C106.729 60.2022 106.663 60.2342 106.598 60.2686L108.001 62.92ZM146.017 65.736L143.757 67.7081C143.764 67.7161 143.771 67.7241 143.778 67.7321L146.017 65.736ZM151.265 103.496H148.265C148.265 105.153 149.609 106.496 151.265 106.496V103.496ZM158.945 106.056L156.21 107.287C156.226 107.324 156.244 107.361 156.262 107.398L158.945 106.056ZM157.921 121.928L155.27 120.524C155.259 120.545 155.249 120.566 155.238 120.586L157.921 121.928ZM140.769 122.568L142.75 120.315C142.715 120.284 142.68 120.254 142.644 120.225L140.769 122.568ZM137.825 118.856L140.54 117.579C140.098 116.639 139.202 115.995 138.171 115.876C137.14 115.756 136.12 116.179 135.475 116.992L137.825 118.856ZM103.777 119.624L105.94 117.545L103.777 119.624ZM129.377 83.016V86.016C131.034 86.016 132.377 84.6729 132.377 83.016H129.377ZM128.225 77.512L126.104 79.6333C126.192 79.7213 126.285 79.8037 126.384 79.8801L128.225 77.512ZM121.185 106.44L119.064 108.561C119.095 108.592 119.126 108.622 119.158 108.651L121.185 106.44ZM129.377 105.928L131.499 108.049C132.061 107.487 132.377 106.724 132.377 105.928H129.377ZM129.377 96.072H132.377C132.377 94.4151 131.034 93.072 129.377 93.072V96.072ZM109.409 78.536L112.027 77.0702C109.709 72.9303 108.825 70.0273 108.825 68.168H105.825H102.825C102.825 71.5993 104.332 75.6084 106.792 80.0018L109.409 78.536ZM105.825 68.168H108.825C108.825 67.0368 108.98 66.3441 109.141 65.957C109.279 65.6225 109.39 65.5796 109.405 65.5714L108.001 62.92L106.598 60.2686C103.629 61.8405 102.825 65.1045 102.825 68.168H105.825ZM108.001 62.92L109.206 65.6674C113.532 63.7701 119.719 62.72 127.969 62.72V59.72V56.72C119.324 56.72 112.199 57.8032 106.796 60.1726L108.001 62.92ZM127.969 59.72V62.72C136.15 62.72 141.096 64.6574 143.757 67.7081L146.017 65.736L148.278 63.7639C143.942 58.7932 136.856 56.72 127.969 56.72V59.72ZM146.017 65.736L143.778 67.7321C146.599 70.8967 148.265 75.8996 148.265 83.272H151.265H154.265C154.265 75.1137 152.434 68.426 148.257 63.7399L146.017 65.736ZM151.265 83.272H148.265V103.496H151.265H154.265V83.272H151.265ZM151.265 103.496V106.496H155.617V103.496V100.496H151.265V103.496ZM155.617 103.496V106.496C155.682 106.496 155.701 106.505 155.693 106.502C155.683 106.499 155.686 106.497 155.708 106.514C155.761 106.554 155.963 106.739 156.21 107.287L158.945 106.056L161.681 104.825C161.16 103.666 160.423 102.571 159.367 101.758C158.267 100.912 156.978 100.496 155.617 100.496V103.496ZM158.945 106.056L156.262 107.398C156.822 108.518 157.225 110.338 157.225 113.096H160.225H163.225C163.225 109.881 162.775 107.008 161.629 104.714L158.945 106.056ZM160.225 113.096H157.225C157.225 115.546 156.6 118.012 155.27 120.524L157.921 121.928L160.573 123.332C162.315 120.042 163.225 116.619 163.225 113.096H160.225ZM157.921 121.928L155.238 120.586C154.134 122.795 153.008 123.28 151.905 123.28V126.28V129.28C155.923 129.28 158.808 126.864 160.605 123.27L157.921 121.928ZM151.905 126.28V123.28C147.852 123.28 144.9 122.204 142.75 120.315L140.769 122.568L138.789 124.821C142.271 127.881 146.743 129.28 151.905 129.28V126.28ZM140.769 122.568L142.644 120.225C141.713 119.481 141.023 118.605 140.54 117.579L137.825 118.856L135.111 120.133C135.993 122.008 137.266 123.607 138.895 124.911L140.769 122.568ZM137.825 118.856L135.475 116.992C132.286 121.013 127.19 123.28 119.521 123.28V126.28V129.28C128.408 129.28 135.515 126.597 140.176 120.72L137.825 118.856ZM119.521 126.28V123.28C114.097 123.28 109.633 121.386 105.94 117.545L103.777 119.624L101.615 121.703C106.455 126.737 112.487 129.28 119.521 129.28V126.28ZM103.777 119.624L105.94 117.545C102.201 113.656 100.377 109.15 100.377 103.88H97.3775H94.3775C94.3775 110.728 96.8206 116.717 101.615 121.703L103.777 119.624ZM97.3775 103.88H100.377C100.377 97.5431 102.247 93.2876 105.542 90.5338C108.939 87.6939 114.362 86.016 122.337 86.016V83.016V80.016C113.673 80.016 106.616 81.8155 101.693 85.9302C96.6679 90.1311 94.3775 96.3075 94.3775 103.88H97.3775ZM122.337 83.016V86.016H129.377V83.016V80.016H122.337V83.016ZM129.377 83.016H132.377V81.736H129.377H126.377V83.016H129.377ZM129.377 81.736H132.377C132.377 80.483 132.272 79.2844 131.984 78.2266C131.702 77.194 131.163 75.9961 130.067 75.1439L128.225 77.512L126.384 79.8801C126.056 79.6252 126.093 79.43 126.195 79.8053C126.291 80.1556 126.377 80.7703 126.377 81.736H129.377ZM128.225 77.512L130.347 75.3907C129.381 74.4244 128.093 74.0153 127.068 73.8052C125.96 73.5779 124.66 73.488 123.233 73.488V76.488V79.488C124.452 79.488 125.307 79.5688 125.863 79.6828C126.502 79.814 126.388 79.9169 126.104 79.6333L128.225 77.512ZM123.233 76.488V73.488C119.648 73.488 114.776 74.2319 108.741 75.6114L109.409 78.536L110.078 81.4606C115.989 80.1094 120.334 79.488 123.233 79.488V76.488ZM119.649 102.088H116.649C116.649 104.515 117.325 106.822 119.064 108.561L121.185 106.44L123.307 104.319C122.998 104.01 122.649 103.416 122.649 102.088H119.649ZM121.185 106.44L119.158 108.651C120.796 110.153 122.825 110.848 125.025 110.848V107.848V104.848C124.154 104.848 123.623 104.605 123.213 104.229L121.185 106.44ZM125.025 107.848V110.848C127.538 110.848 129.728 109.82 131.499 108.049L129.377 105.928L127.256 103.807C126.467 104.596 125.755 104.848 125.025 104.848V107.848ZM129.377 105.928H132.377V96.072H129.377H126.377V105.928H129.377ZM129.377 96.072V93.072H125.793V96.072V99.072H129.377V96.072ZM125.793 96.072V93.072C123.299 93.072 120.874 93.6827 119.087 95.4325C117.288 97.1937 116.649 99.604 116.649 102.088H119.649H122.649C122.649 100.561 123.035 99.9636 123.284 99.7195C123.545 99.464 124.192 99.072 125.793 99.072V96.072ZM183.854 125.768L183.789 128.767C183.811 128.768 183.833 128.768 183.854 128.768L183.854 125.768ZM172.206 82.248H175.206C175.206 80.5911 173.863 79.248 172.206 79.248V82.248ZM165.422 79.816L162.687 81.0471C162.712 81.1033 162.739 81.1587 162.768 81.2132L165.422 79.816ZM182.062 63.304L180.016 65.4972C180.029 65.5095 180.042 65.5218 180.056 65.5339L182.062 63.304ZM185.902 71.24H182.902C182.902 72.6259 183.852 73.8314 185.199 74.1564C186.546 74.4813 187.941 73.8411 188.573 72.6076L185.902 71.24ZM193.07 62.92L194.767 65.3942C194.772 65.3908 194.777 65.3875 194.782 65.3841L193.07 62.92ZM211.374 63.56L214.183 62.5066C214.176 62.4863 214.168 62.466 214.16 62.4458L211.374 63.56ZM210.478 73.672L207.568 72.9444C207.562 72.9673 207.557 72.9904 207.552 73.0135L210.478 73.672ZM204.078 82.504L202.737 85.1873C202.802 85.2199 202.869 85.2502 202.936 85.278L204.078 82.504ZM195.502 124.872H192.502C192.502 123.149 193.87 122.456 193.898 122.441C194.13 122.316 194.256 122.305 194.1 122.341C193.84 122.401 193.294 122.481 192.36 122.553C190.538 122.693 187.72 122.768 183.854 122.768V125.768V128.768C187.754 128.768 190.76 128.694 192.821 128.535C193.828 128.458 194.738 128.351 195.449 128.187C195.779 128.111 196.268 127.979 196.743 127.723C197.013 127.578 198.502 126.745 198.502 124.872H195.502ZM183.854 125.768L183.92 122.769C180.053 122.684 177.221 122.557 175.381 122.396C174.442 122.313 173.87 122.23 173.578 122.166C173.407 122.128 173.497 122.132 173.694 122.227C173.788 122.272 174.079 122.419 174.385 122.728C174.711 123.059 175.206 123.743 175.206 124.744H172.206H169.206C169.206 125.809 169.732 126.556 170.119 126.948C170.485 127.318 170.867 127.525 171.083 127.629C171.522 127.842 171.976 127.957 172.291 128.026C172.97 128.175 173.854 128.284 174.856 128.372C176.899 128.552 179.891 128.682 183.789 128.767L183.854 125.768ZM172.206 124.744H175.206V82.248H172.206H169.206V124.744H172.206ZM172.206 82.248V79.248H168.75V82.248V85.248H172.206V82.248ZM168.75 82.248V79.248C168.711 79.248 168.702 79.2429 168.708 79.2451C168.715 79.2472 168.702 79.2449 168.665 79.2178C168.581 79.1567 168.359 78.9536 168.077 78.4188L165.422 79.816L162.768 81.2132C163.935 83.4307 165.891 85.248 168.75 85.248V82.248ZM165.422 79.816L168.158 78.5849C167.611 77.3687 167.27 75.7245 167.27 73.544H164.27H161.27C161.27 76.3128 161.698 78.85 162.687 81.0471L165.422 79.816ZM164.27 73.544H167.27C167.27 69.1342 167.941 66.3223 168.899 64.7054C169.712 63.3348 170.766 62.72 172.462 62.72V59.72V56.72C168.698 56.72 165.656 58.4092 163.738 61.6466C161.965 64.6377 161.27 68.7378 161.27 73.544H164.27ZM172.462 59.72V62.72C175.622 62.72 178.067 63.6783 180.016 65.4972L182.062 63.304L184.109 61.1108C180.938 58.151 176.983 56.72 172.462 56.72V59.72ZM182.062 63.304L180.056 65.5339C182.09 67.365 182.902 69.2375 182.902 71.24H185.902H188.902C188.902 67.2691 187.155 63.851 184.069 61.0741L182.062 63.304ZM185.902 71.24L188.573 72.6076C190.157 69.5141 192.226 67.1363 194.767 65.3942L193.07 62.92L191.374 60.4458C187.941 62.7997 185.232 65.9686 183.232 69.8724L185.902 71.24ZM193.07 62.92L194.782 65.3841C197.446 63.5338 199.975 62.72 202.414 62.72V59.72V56.72C198.539 56.72 194.839 58.0396 191.359 60.4559L193.07 62.92ZM202.414 59.72V62.72C207.179 62.72 208.312 63.9818 208.589 64.6742L211.374 63.56L214.16 62.4458C212.389 58.0182 207.548 56.72 202.414 56.72V59.72ZM211.374 63.56L208.565 64.6134C208.629 64.7816 208.758 65.3689 208.758 66.632H211.758H214.758C214.758 65.1645 214.632 63.7037 214.183 62.5066L211.374 63.56ZM211.758 66.632H208.758C208.758 67.4895 208.431 69.4926 207.568 72.9444L210.478 73.672L213.389 74.3996C214.233 71.0247 214.758 68.3345 214.758 66.632H211.758ZM210.478 73.672L207.552 73.0135C206.797 76.3663 206.06 78.4937 205.424 79.6391L208.046 81.096L210.669 82.5529C211.739 80.6263 212.624 77.8043 213.405 74.3305L210.478 73.672ZM208.046 81.096L205.424 79.6391C205.008 80.3873 204.714 80.8786 204.526 81.1599C204.425 81.3119 204.408 81.3214 204.46 81.2629C204.481 81.2393 204.595 81.1104 204.79 80.964C204.891 80.8883 205.069 80.7661 205.315 80.6552C205.554 80.5478 205.97 80.4 206.51 80.4V83.4V86.4C207.542 86.4 208.231 85.8834 208.39 85.764C208.65 85.5696 208.838 85.3687 208.945 85.2491C209.167 84.9986 209.364 84.7201 209.519 84.4881C209.843 84.0013 210.231 83.3407 210.669 82.5529L208.046 81.096ZM206.51 83.4V80.4C206.7 80.4 206.845 80.4191 206.913 80.4292C206.99 80.4408 207.048 80.4531 207.077 80.4597C207.134 80.4724 207.159 80.4809 207.136 80.474C207.093 80.4609 206.991 80.4272 206.812 80.361C206.459 80.2311 205.934 80.0238 205.221 79.73L204.078 82.504L202.936 85.278C203.673 85.5815 204.279 85.8222 204.737 85.991C204.963 86.0741 205.187 86.1525 205.389 86.214C205.436 86.2282 205.946 86.4 206.51 86.4V83.4ZM204.078 82.504L205.42 79.8207C203.786 79.0038 202.083 78.48 200.366 78.48V81.48V84.48C200.869 84.48 201.64 84.6388 202.737 85.1873L204.078 82.504ZM200.366 81.48V78.48C197.804 78.48 195.589 79.5757 194.184 81.7948C192.925 83.7825 192.502 86.3801 192.502 89.16H195.502H198.502C198.502 86.8199 198.89 85.5775 199.253 85.0052C199.469 84.6643 199.687 84.48 200.366 84.48V81.48ZM195.502 89.16H192.502V124.872H195.502H198.502V89.16H195.502ZM234.604 125.768L234.539 128.767C234.561 128.768 234.583 128.768 234.604 128.768L234.604 125.768ZM222.956 82.248H225.956C225.956 80.5911 224.613 79.248 222.956 79.248V82.248ZM216.172 79.816L213.437 81.0471C213.462 81.1033 213.489 81.1587 213.518 81.2132L216.172 79.816ZM232.812 63.304L230.766 65.4972C230.779 65.5095 230.792 65.5218 230.806 65.5339L232.812 63.304ZM236.652 71.24H233.652C233.652 72.6259 234.602 73.8314 235.949 74.1564C237.296 74.4813 238.691 73.8411 239.323 72.6076L236.652 71.24ZM243.82 62.92L245.517 65.3942C245.522 65.3908 245.527 65.3875 245.532 65.3841L243.82 62.92ZM262.124 63.56L264.933 62.5066C264.926 62.4863 264.918 62.466 264.91 62.4458L262.124 63.56ZM261.228 73.672L258.318 72.9444C258.312 72.9673 258.307 72.9904 258.302 73.0135L261.228 73.672ZM254.828 82.504L253.487 85.1873C253.552 85.2199 253.619 85.2502 253.686 85.278L254.828 82.504ZM246.252 124.872H243.252C243.252 123.149 244.62 122.456 244.648 122.441C244.88 122.316 245.006 122.305 244.85 122.341C244.59 122.401 244.044 122.481 243.11 122.553C241.288 122.693 238.47 122.768 234.604 122.768V125.768V128.768C238.504 128.768 241.51 128.694 243.571 128.535C244.578 128.458 245.488 128.351 246.199 128.187C246.529 128.111 247.018 127.979 247.493 127.723C247.763 127.578 249.252 126.745 249.252 124.872H246.252ZM234.604 125.768L234.67 122.769C230.803 122.684 227.971 122.557 226.131 122.396C225.192 122.313 224.62 122.23 224.328 122.166C224.157 122.128 224.247 122.132 224.444 122.227C224.538 122.272 224.829 122.419 225.135 122.728C225.461 123.059 225.956 123.743 225.956 124.744H222.956H219.956C219.956 125.809 220.482 126.556 220.869 126.948C221.235 127.318 221.617 127.525 221.833 127.629C222.272 127.842 222.726 127.957 223.041 128.026C223.72 128.175 224.604 128.284 225.606 128.372C227.649 128.552 230.641 128.682 234.539 128.767L234.604 125.768ZM222.956 124.744H225.956V82.248H222.956H219.956V124.744H222.956ZM222.956 82.248V79.248H219.5V82.248V85.248H222.956V82.248ZM219.5 82.248V79.248C219.461 79.248 219.452 79.2429 219.458 79.2451C219.465 79.2472 219.452 79.2449 219.415 79.2178C219.331 79.1567 219.109 78.9536 218.827 78.4188L216.172 79.816L213.518 81.2132C214.685 83.4307 216.641 85.248 219.5 85.248V82.248ZM216.172 79.816L218.908 78.5849C218.361 77.3687 218.02 75.7245 218.02 73.544H215.02H212.02C212.02 76.3128 212.448 78.85 213.437 81.0471L216.172 79.816ZM215.02 73.544H218.02C218.02 69.1342 218.691 66.3223 219.649 64.7054C220.462 63.3348 221.516 62.72 223.212 62.72V59.72V56.72C219.448 56.72 216.406 58.4092 214.488 61.6466C212.715 64.6377 212.02 68.7378 212.02 73.544H215.02ZM223.212 59.72V62.72C226.372 62.72 228.817 63.6783 230.766 65.4972L232.812 63.304L234.859 61.1108C231.688 58.151 227.733 56.72 223.212 56.72V59.72ZM232.812 63.304L230.806 65.5339C232.84 67.365 233.652 69.2375 233.652 71.24H236.652H239.652C239.652 67.2691 237.905 63.851 234.819 61.0741L232.812 63.304ZM236.652 71.24L239.323 72.6076C240.907 69.5141 242.976 67.1363 245.517 65.3942L243.82 62.92L242.124 60.4458C238.691 62.7997 235.982 65.9686 233.982 69.8724L236.652 71.24ZM243.82 62.92L245.532 65.3841C248.196 63.5338 250.725 62.72 253.164 62.72V59.72V56.72C249.289 56.72 245.589 58.0396 242.109 60.4559L243.82 62.92ZM253.164 59.72V62.72C257.929 62.72 259.062 63.9818 259.339 64.6742L262.124 63.56L264.91 62.4458C263.139 58.0182 258.298 56.72 253.164 56.72V59.72ZM262.124 63.56L259.315 64.6134C259.379 64.7816 259.508 65.3689 259.508 66.632H262.508H265.508C265.508 65.1645 265.382 63.7037 264.933 62.5066L262.124 63.56ZM262.508 66.632H259.508C259.508 67.4895 259.181 69.4926 258.318 72.9444L261.228 73.672L264.139 74.3996C264.983 71.0247 265.508 68.3345 265.508 66.632H262.508ZM261.228 73.672L258.302 73.0135C257.547 76.3663 256.81 78.4937 256.174 79.6391L258.796 81.096L261.419 82.5529C262.489 80.6263 263.374 77.8043 264.155 74.3305L261.228 73.672ZM258.796 81.096L256.174 79.6391C255.758 80.3873 255.464 80.8786 255.276 81.1599C255.175 81.3119 255.158 81.3214 255.21 81.2629C255.231 81.2393 255.345 81.1104 255.54 80.964C255.641 80.8883 255.819 80.7661 256.065 80.6552C256.304 80.5478 256.72 80.4 257.26 80.4V83.4V86.4C258.292 86.4 258.981 85.8834 259.14 85.764C259.4 85.5696 259.588 85.3687 259.695 85.2491C259.917 84.9986 260.114 84.7201 260.269 84.4881C260.593 84.0013 260.981 83.3407 261.419 82.5529L258.796 81.096ZM257.26 83.4V80.4C257.45 80.4 257.595 80.4191 257.663 80.4292C257.74 80.4408 257.798 80.4531 257.827 80.4597C257.884 80.4724 257.909 80.4809 257.886 80.474C257.843 80.4609 257.741 80.4272 257.562 80.361C257.209 80.2311 256.684 80.0238 255.971 79.73L254.828 82.504L253.686 85.278C254.423 85.5815 255.029 85.8222 255.487 85.991C255.713 86.0741 255.937 86.1525 256.139 86.214C256.186 86.2282 256.696 86.4 257.26 86.4V83.4ZM254.828 82.504L256.17 79.8207C254.536 79.0038 252.833 78.48 251.116 78.48V81.48V84.48C251.619 84.48 252.39 84.6388 253.487 85.1873L254.828 82.504ZM251.116 81.48V78.48C248.554 78.48 246.339 79.5757 244.934 81.7948C243.675 83.7825 243.252 86.3801 243.252 89.16H246.252H249.252C249.252 86.8199 249.64 85.5775 250.003 85.0052C250.219 84.6643 250.437 84.48 251.116 84.48V81.48ZM246.252 89.16H243.252V124.872H246.252H249.252V89.16H246.252ZM264.49 61.64H261.49C261.49 61.9985 261.555 62.3541 261.68 62.69L264.49 61.64ZM288.298 61.512L285.425 62.3741L285.429 62.3874L288.298 61.512ZM297.514 91.72L294.645 92.5954C295.032 93.865 296.208 94.7292 297.535 94.7199C298.863 94.7107 300.026 93.8302 300.396 92.5553L297.514 91.72ZM306.346 61.256L303.663 59.9144C303.582 60.0768 303.516 60.2462 303.465 60.4206L306.346 61.256ZM330.538 61.896L327.815 60.6388C327.775 60.7247 327.739 60.8125 327.708 60.9017L330.538 61.896ZM300.458 147.528L297.628 146.534C297.571 146.697 297.528 146.864 297.499 147.035L300.458 147.528ZM280.746 147.784L281.006 144.795C280.985 144.793 280.963 144.792 280.942 144.79L280.746 147.784ZM275.114 146.76L272.343 145.612C272.338 145.623 272.334 145.634 272.329 145.646L275.114 146.76ZM286.25 119.88L289.022 121.028C289.313 120.327 289.326 119.541 289.061 118.83L286.25 119.88ZM264.49 61.64H267.49C267.49 62.6892 266.91 63.3462 266.61 63.6002C266.344 63.8254 266.151 63.8771 266.241 63.8443C266.399 63.7869 266.855 63.672 267.762 63.5623C269.518 63.3501 272.283 63.232 276.138 63.232V60.232V57.232C272.228 57.232 269.169 57.3486 267.042 57.6057C266.008 57.7307 265.008 57.9091 264.196 58.2037C263.801 58.3469 263.244 58.5893 262.735 59.0198C262.192 59.4791 261.49 60.3561 261.49 61.64H264.49ZM276.138 60.232V63.232C280.036 63.232 282.886 63.339 284.752 63.5355C285.705 63.6357 286.266 63.7463 286.54 63.8278C286.685 63.8707 286.612 63.8662 286.445 63.7623C286.322 63.6861 285.697 63.2822 285.425 62.374L288.298 61.512L291.172 60.65C290.836 59.5284 290.029 58.9246 289.604 58.6617C289.135 58.3711 288.643 58.1933 288.249 58.0762C287.446 57.8377 286.455 57.6816 285.381 57.5685C283.194 57.3383 280.092 57.232 276.138 57.232V60.232ZM288.298 61.512L285.429 62.3874L294.645 92.5954L297.514 91.72L300.384 90.8446L291.168 60.6366L288.298 61.512ZM297.514 91.72L300.396 92.5553L309.228 62.0913L306.346 61.256L303.465 60.4206L294.633 90.8846L297.514 91.72ZM306.346 61.256L309.03 62.5976C308.752 63.1524 308.369 63.4329 308.22 63.53C308.058 63.6351 307.961 63.6617 308.007 63.6458C308.103 63.6129 308.393 63.5379 308.97 63.4633C310.101 63.3175 311.847 63.232 314.282 63.232V60.232V57.232C311.768 57.232 309.718 57.3172 308.203 57.5127C307.458 57.6088 306.712 57.7471 306.062 57.9702C305.734 58.0823 305.336 58.2475 304.945 58.502C304.567 58.7485 304.026 59.189 303.663 59.9144L306.346 61.256ZM314.282 60.232V63.232C319.94 63.232 324.004 63.3715 326.553 63.6324C327.873 63.7675 328.573 63.916 328.847 64.0091C329.038 64.074 328.711 64.0074 328.331 63.6273C328.103 63.3988 327.775 62.9748 327.635 62.3405C327.488 61.6738 327.614 61.0729 327.815 60.6388L330.538 61.896L333.262 63.1532C333.527 62.5804 333.67 61.8452 333.495 61.0485C333.326 60.2842 332.924 59.7345 332.574 59.3847C331.951 58.7619 331.196 58.47 330.774 58.3269C329.822 58.004 328.554 57.8058 327.164 57.6636C324.294 57.3698 319.975 57.232 314.282 57.232V60.232ZM330.538 61.896L327.708 60.9017L297.628 146.534L300.458 147.528L303.289 148.522L333.369 62.8903L330.538 61.896ZM300.458 147.528L297.499 147.035C297.678 145.96 298.376 145.405 298.619 145.237C298.766 145.136 298.887 145.077 298.951 145.049C299.018 145.019 299.06 145.005 299.067 145.003C299.076 145 299.022 145.017 298.878 145.043C298.74 145.068 298.553 145.095 298.309 145.122C297.302 145.232 295.695 145.296 293.418 145.296V148.296V151.296C295.75 151.296 297.62 151.232 298.96 151.086C299.607 151.016 300.285 150.911 300.874 150.725C301.158 150.635 301.592 150.475 302.022 150.179C302.428 149.899 303.217 149.224 303.418 148.021L300.458 147.528ZM293.418 148.296V145.296C288.97 145.296 284.834 145.128 281.006 144.795L280.746 147.784L280.487 150.773C284.51 151.123 288.821 151.296 293.418 151.296V148.296ZM280.746 147.784L280.942 144.79C279 144.664 277.692 144.523 276.931 144.384C276.508 144.307 276.466 144.267 276.602 144.328C276.637 144.344 277.051 144.52 277.441 144.984C277.664 145.248 277.928 145.665 278.045 146.236C278.168 146.833 278.089 147.403 277.9 147.874L275.114 146.76L272.329 145.646C271.825 146.905 272.228 148.108 272.852 148.848C273.328 149.413 273.891 149.688 274.139 149.8C274.702 150.053 275.343 150.194 275.858 150.288C276.974 150.491 278.567 150.648 280.551 150.778L280.746 147.784ZM275.114 146.76L277.886 147.908L289.022 121.028L286.25 119.88L283.479 118.732L272.343 145.612L275.114 146.76ZM286.25 119.88L289.061 118.83L267.301 60.59L264.49 61.64L261.68 62.69L283.44 120.93L286.25 119.88ZM340.408 101.96L341.961 99.3931C340.936 98.7729 339.64 98.8223 338.665 99.5188L340.408 101.96ZM353.976 100.552L355.234 97.8281C355.193 97.8093 355.151 97.7913 355.11 97.7743L353.976 100.552ZM344.888 64.712L346.645 67.144L346.645 67.144L344.888 64.712ZM377.784 61.768L376.902 64.6353C376.907 64.6369 376.912 64.6384 376.917 64.64L377.784 61.768ZM381.752 74.568L379.193 73.0036C379.182 73.0211 379.171 73.0387 379.161 73.0564L381.752 74.568ZM378.04 79.56L376.578 82.1796C377.348 82.6093 378.268 82.6786 379.094 82.369L378.04 79.56ZM363.96 81.608L361.954 83.8379C362.031 83.9075 362.112 83.973 362.196 84.0342L363.96 81.608ZM368.952 84.296L367.689 87.017C367.716 87.0296 367.743 87.0417 367.771 87.0534L368.952 84.296ZM374.84 87.112L373.384 89.7345C373.403 89.7455 373.423 89.7562 373.443 89.7668L374.84 87.112ZM380.216 90.696L382.079 88.3439C382.074 88.3404 382.07 88.3369 382.065 88.3335L380.216 90.696ZM379.576 120.008L381.613 122.211C381.62 122.204 381.628 122.197 381.635 122.19L379.576 120.008ZM342.584 123.208L343.732 120.436L342.584 123.208ZM336.824 107.208L334.09 105.973C334.079 105.998 334.068 106.023 334.058 106.048L336.824 107.208ZM340.408 101.96L338.856 104.527C345.848 108.757 351.911 111.232 356.792 111.232V108.232V105.232C353.652 105.232 348.793 103.526 341.961 99.3931L340.408 101.96ZM356.792 108.232V111.232C358.33 111.232 360.019 110.979 361.393 110.018C362.962 108.919 363.632 107.253 363.632 105.544H360.632H357.632C357.632 105.635 357.617 105.571 357.684 105.43C357.758 105.274 357.869 105.16 357.952 105.102C358.016 105.058 357.992 105.096 357.791 105.142C357.589 105.19 357.267 105.232 356.792 105.232V108.232ZM360.632 105.544H363.632C363.632 104.341 363.115 103.374 362.612 102.706C362.103 102.03 361.447 101.445 360.768 100.936C359.409 99.9164 357.523 98.8846 355.234 97.8281L353.976 100.552L352.719 103.276C354.868 104.267 356.309 105.092 357.168 105.736C357.599 106.059 357.775 106.257 357.821 106.318C357.873 106.386 357.632 106.107 357.632 105.544H360.632ZM353.976 100.552L355.11 97.7743C350.135 95.7446 346.636 93.1628 344.378 90.1463C342.143 87.1606 340.976 83.5537 340.976 79.176H337.976H334.976C334.976 84.697 336.476 89.6021 339.575 93.7417C342.65 97.8506 347.151 101.007 352.843 103.33L353.976 100.552ZM337.976 79.176H340.976C340.976 73.7008 342.913 69.8392 346.645 67.144L344.888 64.712L343.132 62.28C337.648 66.2408 334.976 72.0219 334.976 79.176H337.976ZM344.888 64.712L346.645 67.144C350.678 64.231 355.548 62.72 361.4 62.72V59.72V56.72C354.453 56.72 348.315 58.537 343.132 62.28L344.888 64.712ZM361.4 59.72V62.72C367.696 62.72 372.839 63.3851 376.902 64.6353L377.784 61.768L378.667 58.9007C373.855 57.4202 368.076 56.72 361.4 56.72V59.72ZM377.784 61.768L376.917 64.64C379.018 65.2741 380.304 65.9284 381.009 66.4872C381.344 66.7529 381.481 66.9444 381.531 67.0334C381.57 67.1027 381.568 67.1254 381.568 67.144H384.568H387.568C387.568 64.8567 386.351 63.0646 384.736 61.7848C383.18 60.5516 381.074 59.6272 378.651 58.896L377.784 61.768ZM384.568 67.144H381.568C381.568 68.1605 381.003 70.041 379.193 73.0036L381.752 74.568L384.312 76.1323C386.257 72.951 387.568 69.8822 387.568 67.144H384.568ZM381.752 74.568L379.161 73.0564C378.288 74.5537 377.595 75.6282 377.073 76.3299C376.811 76.6829 376.633 76.8847 376.535 76.9827C376.381 77.1366 376.545 76.9169 376.987 76.751L378.04 79.56L379.094 82.369C379.877 82.0751 380.452 81.5514 380.778 81.2253C381.16 80.8433 381.532 80.3891 381.888 79.9101C382.603 78.9478 383.425 77.6543 384.344 76.0796L381.752 74.568ZM378.04 79.56L379.503 76.9404C375.379 74.639 370.907 73.488 366.136 73.488V76.488V79.488C369.9 79.488 373.363 80.385 376.578 82.1796L378.04 79.56ZM366.136 76.488V73.488C364.724 73.488 363.129 73.7199 361.818 74.6426C360.314 75.7009 359.68 77.3029 359.68 78.92H362.68H365.68C365.68 78.8692 365.689 78.969 365.608 79.1403C365.519 79.3268 365.386 79.4685 365.271 79.5494C365.175 79.617 365.158 79.5963 365.31 79.5607C365.462 79.525 365.727 79.488 366.136 79.488V76.488ZM362.68 78.92H359.68C359.68 80.9026 360.553 82.5776 361.954 83.8379L363.96 81.608L365.967 79.3781C365.661 79.1024 365.68 78.9854 365.68 78.92H362.68ZM363.96 81.608L362.196 84.0342C363.391 84.9031 365.288 85.9022 367.689 87.017L368.952 84.296L370.216 81.575C367.838 80.4711 366.408 79.6782 365.725 79.1818L363.96 81.608ZM368.952 84.296L367.771 87.0534C370.106 88.0543 371.968 88.9482 373.384 89.7345L374.84 87.112L376.297 84.4895C374.641 83.5692 372.578 82.5857 370.134 81.5386L368.952 84.296ZM374.84 87.112L373.443 89.7668C374.86 90.5127 376.5 91.5967 378.368 93.0585L380.216 90.696L382.065 88.3335C380.008 86.7233 378.063 85.418 376.238 84.4572L374.84 87.112ZM380.216 90.696L378.354 93.0481C381.735 95.7242 383.36 99.0833 383.36 103.368H386.36H389.36C389.36 97.2421 386.89 92.1531 382.079 88.3439L380.216 90.696ZM386.36 103.368H383.36C383.36 109.458 381.377 114.185 377.518 117.826L379.576 120.008L381.635 122.19C386.821 117.298 389.36 110.931 389.36 103.368H386.36ZM379.576 120.008L377.54 117.805C373.788 121.274 367.83 123.28 359.096 123.28V126.28V129.28C368.625 129.28 376.32 127.104 381.613 122.211L379.576 120.008ZM359.096 126.28V123.28C353.38 123.28 348.273 122.315 343.732 120.436L342.584 123.208L341.437 125.98C346.795 128.197 352.696 129.28 359.096 129.28V126.28ZM342.584 123.208L343.732 120.436C339.262 118.587 338.16 116.561 338.16 114.76H335.16H332.16C332.16 120.127 336.008 123.733 341.437 125.98L342.584 123.208ZM335.16 114.76H338.16C338.16 112.84 338.606 110.718 339.591 108.368L336.824 107.208L334.058 106.048C332.825 108.988 332.16 111.901 332.16 114.76H335.16ZM336.824 107.208L339.559 108.443C340.71 105.893 341.637 104.769 342.152 104.401L340.408 101.96L338.665 99.5188C336.791 100.857 335.328 103.232 334.09 105.973L336.824 107.208Z" fill="white"/>
<path d="M445.175 98.248L445.431 80.84C445.431 79.6453 446.668 78.8773 449.143 78.536C451.617 78.1093 453.665 77.896 455.287 77.896L460.279 78.28C463.521 78.792 465.143 79.688 465.143 80.968L464.631 121.032C462.924 122.227 459.468 123.421 454.263 124.616C449.143 125.725 443.255 126.28 436.599 126.28C424.225 126.28 414.241 122.269 406.647 114.248C399.052 106.227 395.255 94.4507 395.255 78.92C395.255 65.6933 398.967 54.9413 406.391 46.664C413.815 38.3867 424.097 34.248 437.239 34.248C443.212 34.248 448.588 34.8453 453.367 36.04C458.231 37.1493 461.559 38.6853 463.351 40.648C463.436 41.3307 463.479 42.6107 463.479 44.488C463.479 46.3653 462.839 49.0533 461.559 52.552C460.279 55.9653 458.828 58.5253 457.207 60.232C455.585 61.9387 454.391 62.792 453.623 62.792C452.94 62.792 452.172 62.4933 451.319 61.896C450.551 61.2133 448.972 60.5307 446.583 59.848C444.193 59.08 441.889 58.696 439.671 58.696C434.38 58.696 430.071 60.4027 426.743 63.816C423.5 67.2293 421.879 72.52 421.879 79.688C421.879 86.856 423.543 92.3173 426.871 96.072C430.284 99.7413 434.167 101.576 438.519 101.576C442.956 101.576 445.175 100.467 445.175 98.248ZM484.739 78.536C482.349 74.2693 481.155 70.8133 481.155 68.168C481.155 65.4373 481.88 63.688 483.331 62.92C488.195 60.7867 494.851 59.72 503.299 59.72C511.832 59.72 517.848 61.7253 521.347 65.736C524.845 69.6613 526.595 75.5067 526.595 83.272V103.496H530.947C532.397 103.496 533.507 104.349 534.275 106.056C535.128 107.763 535.555 110.109 535.555 113.096C535.555 116.083 534.787 119.027 533.251 121.928C531.8 124.829 529.795 126.28 527.235 126.28C522.627 126.28 518.915 125.043 516.099 122.568C514.819 121.544 513.837 120.307 513.155 118.856C509.229 123.805 503.128 126.28 494.851 126.28C488.621 126.28 483.373 124.061 479.107 119.624C474.84 115.187 472.707 109.939 472.707 103.88C472.707 89.9707 481.027 83.016 497.667 83.016H504.707V81.736C504.707 79.5173 504.323 78.1093 503.555 77.512C502.872 76.8293 501.208 76.488 498.563 76.488C495.32 76.488 490.712 77.1707 484.739 78.536ZM494.979 102.088C494.979 103.965 495.491 105.416 496.515 106.44C497.539 107.379 498.819 107.848 500.355 107.848C501.976 107.848 503.427 107.208 504.707 105.928V96.072H501.123C497.027 96.072 494.979 98.0773 494.979 102.088ZM600.784 124.36C600.784 124.957 597.114 125.256 589.776 125.256C582.522 125.256 578.896 124.872 578.896 124.104V86.856C578.896 82.5893 577.488 80.456 574.672 80.456C573.221 80.456 571.301 81.3947 568.912 83.272V124.232C568.912 125.085 565.242 125.512 557.904 125.512C550.65 125.512 547.024 125.043 547.024 124.104V82.248H543.824C541.008 82.248 539.6 79.304 539.6 73.416C539.6 70.7707 540.112 68.0827 541.136 65.352C542.501 61.5973 544.72 59.72 547.792 59.72C550.864 59.72 553.808 60.5307 556.624 62.152C559.525 63.7733 561.274 65.3093 561.872 66.76C567.162 62.0667 573.008 59.72 579.408 59.72C585.893 59.72 591.098 61.7253 595.024 65.736C599.632 61.7253 605.178 59.72 611.664 59.72C625.744 59.72 632.784 68.296 632.784 85.448V124.36C632.784 124.957 629.114 125.256 621.776 125.256C614.522 125.256 610.896 124.872 610.896 124.104V86.856C610.896 82.5893 609.488 80.456 606.672 80.456C605.136 80.456 603.173 81.3947 600.784 83.272V124.36ZM692.059 121.544C686.683 124.701 679.771 126.28 671.323 126.28C662.875 126.28 655.749 123.421 649.947 117.704C644.144 111.901 641.243 103.923 641.243 93.768C641.243 83.528 644.016 75.2933 649.563 69.064C655.195 62.8347 662.277 59.72 670.811 59.72C679.344 59.72 685.915 61.896 690.523 66.248C695.216 70.6 697.563 75.8907 697.563 82.12C697.563 95.944 689.627 102.856 673.755 102.856H664.923C664.923 105.416 665.605 107.208 666.971 108.232C668.421 109.171 670.512 109.64 673.243 109.64C679.216 109.64 684.891 108.275 690.267 105.544C690.352 105.459 690.736 106.056 691.419 107.336C693.467 111.005 694.491 114.12 694.491 116.68C694.491 119.155 693.68 120.776 692.059 121.544ZM676.059 84.552C676.059 80.968 674.309 79.176 670.811 79.176C669.189 79.176 667.781 79.688 666.587 80.712C665.477 81.6507 664.923 83.0587 664.923 84.936V88.904H671.835C674.651 88.904 676.059 87.4533 676.059 84.552ZM708.613 101.96C715.525 106.141 720.986 108.232 724.997 108.232C727.557 108.232 728.837 107.336 728.837 105.544C728.837 104.264 726.618 102.6 722.181 100.552C711.514 96.2 706.181 89.0747 706.181 79.176C706.181 72.8613 708.485 68.04 713.093 64.712C717.701 61.384 723.205 59.72 729.605 59.72C736.09 59.72 741.551 60.4027 745.989 61.768C750.511 63.1333 752.773 64.9253 752.773 67.144C752.773 69.0213 751.834 71.496 749.957 74.568C748.165 77.64 746.927 79.304 746.245 79.56C742.575 77.512 738.607 76.488 734.341 76.488C732.037 76.488 730.885 77.2987 730.885 78.92C730.885 79.944 731.311 80.84 732.165 81.608C733.103 82.2907 734.767 83.1867 737.157 84.296C739.546 85.32 741.509 86.2587 743.045 87.112C744.666 87.9653 746.458 89.16 748.421 90.696C752.517 93.9387 754.565 98.1627 754.565 103.368C754.565 110.195 752.303 115.741 747.781 120.008C743.258 124.189 736.431 126.28 727.301 126.28C721.242 126.28 715.738 125.256 710.789 123.208C705.839 121.16 703.365 118.344 703.365 114.76C703.365 112.371 703.919 109.853 705.029 107.208C706.223 104.563 707.418 102.813 708.613 101.96Z" fill="#EE2C63"/>
<path d="M445.175 98.248L442.175 98.2039C442.175 98.2186 442.175 98.2333 442.175 98.248L445.175 98.248ZM445.431 80.84L448.43 80.8841C448.43 80.8694 448.431 80.8547 448.431 80.84L445.431 80.84ZM449.143 78.536L449.552 81.5079C449.586 81.5033 449.619 81.4981 449.652 81.4924L449.143 78.536ZM455.287 77.896L455.517 74.9048C455.44 74.8989 455.363 74.896 455.287 74.896V77.896ZM460.279 78.28L460.746 75.3167C460.668 75.3043 460.588 75.295 460.509 75.2888L460.279 78.28ZM465.143 80.968L468.142 81.0063C468.142 80.9936 468.143 80.9808 468.143 80.968H465.143ZM464.631 121.032L466.351 123.49C467.142 122.936 467.618 122.036 467.63 121.07L464.631 121.032ZM454.263 124.616L454.898 127.548C454.91 127.545 454.922 127.543 454.934 127.54L454.263 124.616ZM406.647 114.248L408.825 112.185L408.825 112.185L406.647 114.248ZM453.367 36.04L452.639 38.9504C452.659 38.9555 452.679 38.9603 452.699 38.9649L453.367 36.04ZM463.351 40.648L466.327 40.2759C466.25 39.6602 465.984 39.0834 465.566 38.6252L463.351 40.648ZM461.559 52.552L464.368 53.6054C464.37 53.5978 464.373 53.5903 464.376 53.5827L461.559 52.552ZM457.207 60.232L455.032 58.1657L455.032 58.1657L457.207 60.232ZM451.319 61.896L449.325 64.1382C449.412 64.2153 449.503 64.2872 449.598 64.3537L451.319 61.896ZM446.583 59.848L445.665 62.7041C445.696 62.7141 445.727 62.7236 445.758 62.7326L446.583 59.848ZM426.743 63.816L424.595 61.7217C424.585 61.731 424.576 61.7403 424.568 61.7497L426.743 63.816ZM426.871 96.072L424.626 98.0619C424.641 98.0799 424.658 98.0977 424.674 98.1153L426.871 96.072ZM445.175 98.248L448.174 98.2921L448.43 80.8841L445.431 80.84L442.431 80.7959L442.175 98.2039L445.175 98.248ZM445.431 80.84H448.431C448.431 81.0898 448.357 81.3754 448.2 81.6239C448.059 81.8487 447.922 81.9287 447.941 81.9169C447.964 81.9023 448.09 81.8324 448.378 81.7464C448.66 81.6621 449.045 81.5779 449.552 81.5079L449.143 78.536L448.733 75.5641C447.335 75.7569 445.92 76.109 444.776 76.8191C443.5 77.6115 442.431 78.9664 442.431 80.84H445.431ZM449.143 78.536L449.652 81.4924C452.039 81.0808 453.902 80.896 455.287 80.896V77.896V74.896C453.428 74.896 451.195 75.1378 448.633 75.5796L449.143 78.536ZM455.287 77.896L455.056 80.8872L460.048 81.2712L460.279 78.28L460.509 75.2888L455.517 74.9048L455.287 77.896ZM460.279 78.28L459.811 81.2433C461.311 81.4801 462.12 81.7654 462.475 81.9617C462.636 82.0502 462.561 82.044 462.433 81.8724C462.274 81.6596 462.143 81.334 462.143 80.968H465.143H468.143C468.143 78.7837 466.669 77.4237 465.378 76.7103C464.112 76.0106 462.489 75.5918 460.746 75.3167L460.279 78.28ZM465.143 80.968L462.143 80.9297L461.631 120.994L464.631 121.032L467.63 121.07L468.142 81.0063L465.143 80.968ZM464.631 121.032L462.91 118.574C461.742 119.392 458.833 120.489 453.591 121.692L454.263 124.616L454.934 127.54C460.103 126.354 464.106 125.061 466.351 123.49L464.631 121.032ZM454.263 124.616L453.627 121.684C448.763 122.738 443.095 123.28 436.599 123.28V126.28V129.28C443.414 129.28 449.522 128.713 454.898 127.548L454.263 124.616ZM436.599 126.28V123.28C424.94 123.28 415.782 119.533 408.825 112.185L406.647 114.248L404.468 116.311C412.7 125.005 423.51 129.28 436.599 129.28V126.28ZM406.647 114.248L408.825 112.185C401.94 104.913 398.255 93.9964 398.255 78.92H395.255H392.255C392.255 94.9049 396.164 107.54 404.468 116.311L406.647 114.248ZM395.255 78.92H398.255C398.255 66.2847 401.784 56.293 408.624 48.6671L406.391 46.664L404.157 44.6609C396.149 53.5897 392.255 65.102 392.255 78.92H395.255ZM406.391 46.664L408.624 48.6671C415.375 41.1404 424.78 37.248 437.239 37.248V34.248V31.248C423.415 31.248 412.255 35.6329 404.157 44.6609L406.391 46.664ZM437.239 34.248V37.248C443.017 37.248 448.142 37.8263 452.639 38.9504L453.367 36.04L454.094 33.1296C449.033 31.8644 443.407 31.248 437.239 31.248V34.248ZM453.367 36.04L452.699 38.9649C457.415 40.0403 459.983 41.4088 461.135 42.6708L463.351 40.648L465.566 38.6252C463.134 35.9618 459.046 34.2584 454.034 33.1151L453.367 36.04ZM463.351 40.648L460.374 41.0201C460.433 41.4912 460.479 42.5926 460.479 44.488H463.479H466.479C466.479 42.6287 466.439 41.1701 466.327 40.2759L463.351 40.648ZM463.479 44.488H460.479C460.479 45.8157 459.995 48.0935 458.741 51.5213L461.559 52.552L464.376 53.5827C465.682 50.0131 466.479 46.9149 466.479 44.488H463.479ZM461.559 52.552L458.75 51.4986C457.541 54.7202 456.266 56.8662 455.032 58.1657L457.207 60.232L459.382 62.2982C461.39 60.1845 463.016 57.2104 464.368 53.6054L461.559 52.552ZM457.207 60.232L455.032 58.1657C454.284 58.9527 453.729 59.4409 453.351 59.7108C453.165 59.8436 453.079 59.8824 453.082 59.8808C453.088 59.8783 453.135 59.858 453.22 59.8374C453.304 59.8168 453.442 59.792 453.623 59.792V62.792V65.792C454.986 65.792 456.127 65.1015 456.838 64.5932C457.655 64.0098 458.508 63.2179 459.382 62.2982L457.207 60.232ZM453.623 62.792V59.792C453.721 59.792 453.729 59.8137 453.622 59.772C453.511 59.729 453.318 59.6336 453.039 59.4383L451.319 61.896L449.598 64.3537C450.707 65.1301 452.078 65.792 453.623 65.792V62.792ZM451.319 61.896L453.312 59.6538C451.978 58.4684 449.781 57.6417 447.407 56.9634L446.583 59.848L445.758 62.7326C446.878 63.0524 447.737 63.3529 448.368 63.6256C448.681 63.7609 448.914 63.8794 449.082 63.977C449.165 64.0251 449.225 64.0645 449.267 64.0939C449.309 64.1236 449.326 64.1389 449.325 64.1382L451.319 61.896ZM446.583 59.848L447.501 56.9919C444.853 56.1409 442.239 55.696 439.671 55.696V58.696V61.696C441.54 61.696 443.534 62.0191 445.665 62.7041L446.583 59.848ZM439.671 58.696V55.696C433.669 55.696 428.552 57.6628 424.595 61.7217L426.743 63.816L428.891 65.9103C431.589 63.1425 435.091 61.696 439.671 61.696V58.696ZM426.743 63.816L424.568 61.7497C420.576 65.9514 418.879 72.1427 418.879 79.688H421.879H424.879C424.879 72.8973 426.424 68.5073 428.918 65.8822L426.743 63.816ZM421.879 79.688H418.879C418.879 87.2782 420.638 93.5635 424.626 98.0619L426.871 96.072L429.116 94.0821C426.447 91.0712 424.879 86.4338 424.879 79.688H421.879ZM426.871 96.072L424.674 98.1153C428.561 102.293 433.204 104.576 438.519 104.576V101.576V98.576C435.129 98.576 432.007 97.1893 429.067 94.0287L426.871 96.072ZM438.519 101.576V104.576C440.89 104.576 443.116 104.295 444.852 103.427C445.763 102.972 446.626 102.311 447.255 101.368C447.896 100.406 448.175 99.3276 448.175 98.248H445.175H442.175C442.175 98.2777 442.176 98.1699 442.262 98.0399C442.337 97.9287 442.368 97.9613 442.169 98.0607C441.686 98.3019 440.584 98.576 438.519 98.576V101.576ZM484.739 78.536L482.121 80.0018C482.771 81.1632 484.109 81.7572 485.407 81.4606L484.739 78.536ZM483.331 62.92L482.126 60.1726C482.058 60.2022 481.992 60.2342 481.927 60.2686L483.331 62.92ZM521.347 65.736L519.086 67.7081C519.093 67.7161 519.1 67.7241 519.107 67.7321L521.347 65.736ZM526.595 103.496H523.595C523.595 105.153 524.938 106.496 526.595 106.496V103.496ZM534.275 106.056L531.539 107.287C531.556 107.324 531.573 107.361 531.591 107.398L534.275 106.056ZM533.251 121.928L530.599 120.524C530.588 120.545 530.578 120.566 530.567 120.586L533.251 121.928ZM516.099 122.568L518.079 120.315C518.044 120.284 518.009 120.254 517.973 120.225L516.099 122.568ZM513.155 118.856L515.869 117.579C515.427 116.639 514.531 115.995 513.5 115.876C512.469 115.756 511.449 116.179 510.804 116.992L513.155 118.856ZM479.107 119.624L481.269 117.545L479.107 119.624ZM504.707 83.016V86.016C506.363 86.016 507.707 84.6729 507.707 83.016H504.707ZM503.555 77.512L501.433 79.6333C501.521 79.7213 501.615 79.8037 501.713 79.8801L503.555 77.512ZM496.515 106.44L494.393 108.561C494.424 108.592 494.455 108.622 494.487 108.651L496.515 106.44ZM504.707 105.928L506.828 108.049C507.39 107.487 507.707 106.724 507.707 105.928H504.707ZM504.707 96.072H507.707C507.707 94.4151 506.363 93.072 504.707 93.072V96.072ZM484.739 78.536L487.356 77.0702C485.038 72.9303 484.155 70.0273 484.155 68.168H481.155H478.155C478.155 71.5993 479.661 75.6084 482.121 80.0018L484.739 78.536ZM481.155 68.168H484.155C484.155 67.0368 484.309 66.3441 484.47 65.957C484.608 65.6225 484.719 65.5796 484.734 65.5714L483.331 62.92L481.927 60.2686C478.958 61.8405 478.155 65.1045 478.155 68.168H481.155ZM483.331 62.92L484.536 65.6674C488.861 63.7701 495.048 62.72 503.299 62.72V59.72V56.72C494.653 56.72 487.528 57.8032 482.126 60.1726L483.331 62.92ZM503.299 59.72V62.72C511.479 62.72 516.425 64.6574 519.086 67.7081L521.347 65.736L523.607 63.7639C519.271 58.7932 512.185 56.72 503.299 56.72V59.72ZM521.347 65.736L519.107 67.7321C521.928 70.8967 523.595 75.8996 523.595 83.272H526.595H529.595C529.595 75.1137 527.763 68.426 523.586 63.7399L521.347 65.736ZM526.595 83.272H523.595V103.496H526.595H529.595V83.272H526.595ZM526.595 103.496V106.496H530.947V103.496V100.496H526.595V103.496ZM530.947 103.496V106.496C531.011 106.496 531.03 106.505 531.022 106.502C531.013 106.499 531.015 106.497 531.037 106.514C531.09 106.554 531.292 106.739 531.539 107.287L534.275 106.056L537.01 104.825C536.489 103.666 535.752 102.571 534.696 101.758C533.596 100.912 532.308 100.496 530.947 100.496V103.496ZM534.275 106.056L531.591 107.398C532.151 108.518 532.555 110.338 532.555 113.096H535.555H538.555C538.555 109.881 538.104 107.008 536.958 104.714L534.275 106.056ZM535.555 113.096H532.555C532.555 115.546 531.929 118.012 530.599 120.524L533.251 121.928L535.902 123.332C537.644 120.042 538.555 116.619 538.555 113.096H535.555ZM533.251 121.928L530.567 120.586C529.463 122.795 528.337 123.28 527.235 123.28V126.28V129.28C531.252 129.28 534.137 126.864 535.934 123.27L533.251 121.928ZM527.235 126.28V123.28C523.181 123.28 520.229 122.204 518.079 120.315L516.099 122.568L514.118 124.821C517.6 127.881 522.072 129.28 527.235 129.28V126.28ZM516.099 122.568L517.973 120.225C517.042 119.481 516.352 118.605 515.869 117.579L513.155 118.856L510.44 120.133C511.322 122.008 512.595 123.607 514.224 124.911L516.099 122.568ZM513.155 118.856L510.804 116.992C507.615 121.013 502.519 123.28 494.851 123.28V126.28V129.28C503.737 129.28 510.844 126.597 515.505 120.72L513.155 118.856ZM494.851 126.28V123.28C489.426 123.28 484.963 121.386 481.269 117.545L479.107 119.624L476.944 121.703C481.784 126.737 487.816 129.28 494.851 129.28V126.28ZM479.107 119.624L481.269 117.545C477.53 113.656 475.707 109.15 475.707 103.88H472.707H469.707C469.707 110.728 472.15 116.717 476.944 121.703L479.107 119.624ZM472.707 103.88H475.707C475.707 97.5431 477.576 93.2876 480.871 90.5338C484.268 87.6939 489.691 86.016 497.667 86.016V83.016V80.016C489.002 80.016 481.945 81.8155 477.023 85.9302C471.997 90.1311 469.707 96.3075 469.707 103.88H472.707ZM497.667 83.016V86.016H504.707V83.016V80.016H497.667V83.016ZM504.707 83.016H507.707V81.736H504.707H501.707V83.016H504.707ZM504.707 81.736H507.707C507.707 80.483 507.601 79.2844 507.313 78.2266C507.031 77.194 506.492 75.9961 505.396 75.1439L503.555 77.512L501.713 79.8801C501.385 79.6252 501.422 79.43 501.524 79.8053C501.62 80.1556 501.707 80.7703 501.707 81.736H504.707ZM503.555 77.512L505.676 75.3907C504.71 74.4244 503.422 74.0153 502.397 73.8052C501.289 73.5779 499.989 73.488 498.563 73.488V76.488V79.488C499.781 79.488 500.636 79.5688 501.192 79.6828C501.831 79.814 501.717 79.9169 501.433 79.6333L503.555 77.512ZM498.563 76.488V73.488C494.977 73.488 490.106 74.2319 484.07 75.6114L484.739 78.536L485.407 81.4606C491.318 80.1094 495.663 79.488 498.563 79.488V76.488ZM494.979 102.088H491.979C491.979 104.515 492.654 106.822 494.393 108.561L496.515 106.44L498.636 104.319C498.327 104.01 497.979 103.416 497.979 102.088H494.979ZM496.515 106.44L494.487 108.651C496.125 110.153 498.154 110.848 500.355 110.848V107.848V104.848C499.483 104.848 498.952 104.605 498.542 104.229L496.515 106.44ZM500.355 107.848V110.848C502.867 110.848 505.057 109.82 506.828 108.049L504.707 105.928L502.585 103.807C501.796 104.596 501.084 104.848 500.355 104.848V107.848ZM504.707 105.928H507.707V96.072H504.707H501.707V105.928H504.707ZM504.707 96.072V93.072H501.123V96.072V99.072H504.707V96.072ZM501.123 96.072V93.072C498.628 93.072 496.203 93.6827 494.416 95.4325C492.617 97.1937 491.979 99.604 491.979 102.088H494.979H497.979C497.979 100.561 498.364 99.9636 498.613 99.7195C498.874 99.464 499.521 99.072 501.123 99.072V96.072ZM568.912 83.272L567.058 80.913C566.334 81.4818 565.912 82.3514 565.912 83.272H568.912ZM547.024 82.248H550.024C550.024 80.5911 548.68 79.248 547.024 79.248V82.248ZM541.136 65.352L543.945 66.4054C543.948 66.396 543.952 66.3866 543.955 66.3772L541.136 65.352ZM556.624 62.152L555.127 64.7519C555.138 64.7583 555.149 64.7646 555.16 64.7708L556.624 62.152ZM561.872 66.76L559.098 67.9022C559.467 68.8004 560.249 69.464 561.196 69.6829C562.142 69.9017 563.136 69.6488 563.862 69.0042L561.872 66.76ZM595.024 65.736L592.88 67.8344C593.991 68.9698 595.795 69.042 596.993 67.9989L595.024 65.736ZM600.784 83.272L598.93 80.913C598.206 81.4818 597.784 82.3514 597.784 83.272H600.784ZM600.784 124.36H597.784C597.784 122.722 599.032 122.017 599.126 121.963C599.373 121.823 599.52 121.804 599.384 121.838C599.163 121.892 598.666 121.97 597.788 122.042C596.079 122.181 593.427 122.256 589.776 122.256V125.256V128.256C593.463 128.256 596.314 128.182 598.275 128.022C599.232 127.944 600.111 127.836 600.807 127.666C601.13 127.588 601.62 127.448 602.097 127.177C602.42 126.992 603.784 126.147 603.784 124.36H600.784ZM589.776 125.256V122.256C586.173 122.256 583.582 122.159 581.931 121.985C581.079 121.894 580.641 121.799 580.484 121.749C580.387 121.718 580.578 121.761 580.852 121.964C581.127 122.167 581.896 122.863 581.896 124.104H578.896H575.896C575.896 125.537 576.778 126.413 577.279 126.784C577.779 127.155 578.31 127.354 578.667 127.467C579.416 127.705 580.339 127.85 581.3 127.951C583.276 128.161 586.125 128.256 589.776 128.256V125.256ZM578.896 124.104H581.896V86.856H578.896H575.896V124.104H578.896ZM578.896 86.856H581.896C581.896 84.4879 581.522 82.1894 580.343 80.4035C579.021 78.3992 576.966 77.456 574.672 77.456V80.456V83.456C574.994 83.456 575.131 83.5156 575.167 83.5338C575.191 83.5461 575.248 83.5753 575.336 83.7085C575.565 84.0559 575.896 84.9575 575.896 86.856H578.896ZM574.672 80.456V77.456C572.125 77.456 569.501 78.9939 567.058 80.913L568.912 83.272L570.765 85.631C573.101 83.7954 574.316 83.456 574.672 83.456V80.456ZM568.912 83.272H565.912V124.232H568.912H571.912V83.272H568.912ZM568.912 124.232H565.912C565.912 123.124 566.545 122.45 566.846 122.205C567.119 121.983 567.319 121.93 567.235 121.959C567.095 122.009 566.67 122.112 565.813 122.212C564.157 122.405 561.546 122.512 557.904 122.512V125.512V128.512C561.599 128.512 564.493 128.406 566.506 128.172C567.484 128.058 568.435 127.895 569.212 127.625C569.587 127.494 570.13 127.268 570.633 126.859C571.163 126.427 571.912 125.553 571.912 124.232H568.912ZM557.904 125.512V122.512C554.306 122.512 551.744 122.394 550.129 122.185C549.291 122.076 548.899 121.966 548.789 121.923C548.727 121.899 548.937 121.965 549.208 122.211C549.521 122.494 550.024 123.136 550.024 124.104H547.024H544.024C544.024 125.307 544.64 126.169 545.179 126.657C545.677 127.108 546.227 127.365 546.618 127.517C547.415 127.826 548.383 128.009 549.359 128.135C551.37 128.396 554.247 128.512 557.904 128.512V125.512ZM547.024 124.104H550.024V82.248H547.024H544.024V124.104H547.024ZM547.024 82.248V79.248H543.824V82.248V85.248H547.024V82.248ZM543.824 82.248V79.248C543.735 79.248 543.696 79.2368 543.692 79.2355C543.69 79.2349 543.693 79.2365 543.691 79.2348C543.688 79.2328 543.549 79.1366 543.362 78.7456C542.95 77.8836 542.6 76.2164 542.6 73.416H539.6H536.6C536.6 76.5036 536.953 79.2524 537.949 81.3344C538.466 82.4154 539.207 83.4232 540.26 84.1572C541.339 84.9089 542.566 85.248 543.824 85.248V82.248ZM539.6 73.416H542.6C542.6 71.1654 543.034 68.8337 543.945 66.4054L541.136 65.352L538.327 64.2986C537.189 67.3317 536.6 70.3759 536.6 73.416H539.6ZM541.136 65.352L543.955 66.3772C544.523 64.8152 545.173 63.916 545.761 63.4182C546.296 62.9654 546.921 62.72 547.792 62.72V59.72V56.72C545.59 56.72 543.569 57.4133 541.886 58.8378C540.255 60.2174 539.114 62.1341 538.316 64.3268L541.136 65.352ZM547.792 59.72V62.72C550.308 62.72 552.739 63.377 555.127 64.7519L556.624 62.152L558.12 59.5521C554.876 57.6844 551.42 56.72 547.792 56.72V59.72ZM556.624 62.152L555.16 64.7708C558.011 66.364 558.922 67.4765 559.098 67.9022L561.872 66.76L564.646 65.6178C563.626 63.1421 561.039 61.1827 558.087 59.5332L556.624 62.152ZM561.872 66.76L563.862 69.0042C568.666 64.7427 573.82 62.72 579.408 62.72V59.72V56.72C572.195 56.72 565.658 59.3907 559.881 64.5158L561.872 66.76ZM579.408 59.72V62.72C585.222 62.72 589.607 64.4911 592.88 67.8344L595.024 65.736L597.168 63.6376C592.589 58.9596 586.563 56.72 579.408 56.72V59.72ZM595.024 65.736L596.993 67.9989C601.02 64.4944 605.854 62.72 611.664 62.72V59.72V56.72C604.503 56.72 598.244 58.9562 593.054 63.4731L595.024 65.736ZM611.664 59.72V62.72C618.068 62.72 622.382 64.6417 625.185 68.0555C628.08 71.5826 629.784 77.2064 629.784 85.448H632.784H635.784C635.784 76.5376 633.967 69.2974 629.822 64.2485C625.585 59.0863 619.339 56.72 611.664 56.72V59.72ZM632.784 85.448H629.784V124.36H632.784H635.784V85.448H632.784ZM632.784 124.36H629.784C629.784 122.722 631.032 122.017 631.126 121.963C631.373 121.823 631.52 121.804 631.384 121.838C631.163 121.892 630.666 121.97 629.788 122.042C628.079 122.181 625.427 122.256 621.776 122.256V125.256V128.256C625.463 128.256 628.314 128.182 630.275 128.022C631.232 127.944 632.111 127.836 632.807 127.666C633.13 127.588 633.62 127.448 634.097 127.177C634.42 126.992 635.784 126.147 635.784 124.36H632.784ZM621.776 125.256V122.256C618.173 122.256 615.582 122.159 613.931 121.985C613.079 121.894 612.641 121.799 612.484 121.749C612.387 121.718 612.578 121.761 612.852 121.964C613.127 122.167 613.896 122.863 613.896 124.104H610.896H607.896C607.896 125.537 608.778 126.413 609.279 126.784C609.779 127.155 610.31 127.354 610.667 127.467C611.416 127.705 612.339 127.85 613.3 127.951C615.276 128.161 618.125 128.256 621.776 128.256V125.256ZM610.896 124.104H613.896V86.856H610.896H607.896V124.104H610.896ZM610.896 86.856H613.896C613.896 84.4879 613.522 82.1894 612.343 80.4035C611.021 78.3992 608.966 77.456 606.672 77.456V80.456V83.456C606.994 83.456 607.131 83.5156 607.167 83.5338C607.191 83.5461 607.248 83.5753 607.336 83.7085C607.565 84.0559 607.896 84.9575 607.896 86.856H610.896ZM606.672 80.456V77.456C604.064 77.456 601.411 78.9639 598.93 80.913L600.784 83.272L602.637 85.631C604.935 83.8254 606.207 83.456 606.672 83.456V80.456ZM600.784 83.272H597.784V124.36H600.784H603.784V83.272H600.784ZM692.059 121.544L690.774 118.833C690.694 118.871 690.616 118.912 690.539 118.957L692.059 121.544ZM649.947 117.704L647.825 119.825C647.83 119.831 647.836 119.836 647.841 119.841L649.947 117.704ZM649.563 69.064L647.337 67.0521C647.332 67.0577 647.327 67.0633 647.322 67.069L649.563 69.064ZM690.523 66.248L688.463 68.429C688.469 68.4353 688.476 68.4416 688.483 68.4478L690.523 66.248ZM664.923 102.856V99.856C663.266 99.856 661.923 101.199 661.923 102.856H664.923ZM666.971 108.232L665.171 110.632C665.226 110.674 665.283 110.713 665.341 110.751L666.971 108.232ZM690.267 105.544L691.625 108.219C691.907 108.076 692.164 107.889 692.388 107.665L690.267 105.544ZM691.419 107.336L688.771 108.748C688.78 108.765 688.79 108.781 688.799 108.798L691.419 107.336ZM666.587 80.712L668.524 83.0022C668.529 82.998 668.534 82.9939 668.539 82.9898L666.587 80.712ZM664.923 88.904H661.923C661.923 90.5609 663.266 91.904 664.923 91.904V88.904ZM692.059 121.544L690.539 118.957C685.759 121.764 679.419 123.28 671.323 123.28V126.28V129.28C680.122 129.28 687.606 127.638 693.578 124.131L692.059 121.544ZM671.323 126.28V123.28C663.63 123.28 657.271 120.709 652.052 115.567L649.947 117.704L647.841 119.841C654.228 126.134 662.119 129.28 671.323 129.28V126.28ZM649.947 117.704L652.068 115.583C646.955 110.47 644.243 103.327 644.243 93.768H641.243H638.243C638.243 104.518 641.333 113.333 647.825 119.825L649.947 117.704ZM641.243 93.768H644.243C644.243 84.0887 646.851 76.621 651.803 71.059L649.563 69.064L647.322 67.069C641.181 73.9657 638.243 82.9673 638.243 93.768H641.243ZM649.563 69.064L651.788 71.0759C656.841 65.4872 663.11 62.72 670.811 62.72V59.72V56.72C661.445 56.72 653.548 60.1821 647.337 67.0521L649.563 69.064ZM670.811 59.72V62.72C678.849 62.72 684.581 64.7634 688.463 68.429L690.523 66.248L692.582 64.067C687.248 59.0286 679.839 56.72 670.811 56.72V59.72ZM690.523 66.248L688.483 68.4478C692.583 72.2498 694.563 76.7513 694.563 82.12H697.563H700.563C700.563 75.0301 697.849 68.9502 692.562 64.0482L690.523 66.248ZM697.563 82.12H694.563C694.563 88.4534 692.764 92.6892 689.64 95.4098C686.437 98.1993 681.322 99.856 673.755 99.856V102.856V105.856C682.059 105.856 688.848 104.057 693.581 99.9342C698.393 95.7428 700.563 89.6106 700.563 82.12H697.563ZM673.755 102.856V99.856H664.923V102.856V105.856H673.755V102.856ZM664.923 102.856H661.923C661.923 105.871 662.729 108.801 665.171 110.632L666.971 108.232L668.771 105.832C668.481 105.615 667.923 104.961 667.923 102.856H664.923ZM666.971 108.232L665.341 110.751C667.483 112.137 670.241 112.64 673.243 112.64V109.64V106.64C670.783 106.64 669.359 106.205 668.6 105.713L666.971 108.232ZM673.243 109.64V112.64C679.693 112.64 685.832 111.161 691.625 108.219L690.267 105.544L688.908 102.869C683.949 105.388 678.739 106.64 673.243 106.64V109.64ZM690.267 105.544L692.388 107.665C691.82 108.233 691.059 108.536 690.286 108.536C689.622 108.536 689.133 108.315 688.901 108.191C688.459 107.956 688.205 107.668 688.175 107.635C688.052 107.501 688.017 107.429 688.095 107.55C688.218 107.742 688.438 108.122 688.771 108.748L691.419 107.336L694.066 105.924C693.717 105.27 693.403 104.712 693.142 104.306C693.028 104.129 692.838 103.843 692.598 103.581C692.509 103.484 692.206 103.154 691.724 102.897C691.472 102.762 690.966 102.536 690.286 102.536C689.497 102.536 688.724 102.844 688.145 103.423L690.267 105.544ZM691.419 107.336L688.799 108.798C690.74 112.276 691.491 114.861 691.491 116.68H694.491H697.491C697.491 113.379 696.193 109.735 694.038 105.874L691.419 107.336ZM694.491 116.68H691.491C691.491 118.508 690.953 118.748 690.774 118.833L692.059 121.544L693.343 124.255C696.407 122.804 697.491 119.801 697.491 116.68H694.491ZM676.059 84.552H679.059C679.059 82.3155 678.513 80.0836 676.893 78.4244C675.26 76.7517 673.041 76.176 670.811 76.176V79.176V82.176C672.079 82.176 672.483 82.4963 672.6 82.6156C672.729 82.7483 673.059 83.2045 673.059 84.552H676.059ZM670.811 79.176V76.176C668.497 76.176 666.39 76.9289 664.634 78.4342L666.587 80.712L668.539 82.9898C669.172 82.4471 669.882 82.176 670.811 82.176V79.176ZM666.587 80.712L664.649 78.4218C662.68 80.0878 661.923 82.4527 661.923 84.936H664.923H667.923C667.923 83.6646 668.275 83.2136 668.524 83.0022L666.587 80.712ZM664.923 84.936H661.923V88.904H664.923H667.923V84.936H664.923ZM664.923 88.904V91.904H671.835V88.904V85.904H664.923V88.904ZM671.835 88.904V91.904C673.728 91.904 675.694 91.4111 677.155 89.9054C678.601 88.4164 679.059 86.443 679.059 84.552H676.059H673.059C673.059 85.0439 672.998 85.3545 672.94 85.5325C672.912 85.6184 672.887 85.6689 672.872 85.6943C672.858 85.7186 672.85 85.7264 672.85 85.7266C672.849 85.7273 672.848 85.7283 672.846 85.7299C672.844 85.7316 672.839 85.7351 672.831 85.7402C672.815 85.7501 672.778 85.7708 672.708 85.7947C672.563 85.8444 672.29 85.904 671.835 85.904V88.904ZM708.613 101.96L710.165 99.3931C709.14 98.7729 707.844 98.8223 706.869 99.5188L708.613 101.96ZM722.181 100.552L723.438 97.8281C723.397 97.8093 723.356 97.7913 723.314 97.7743L722.181 100.552ZM713.093 64.712L714.849 67.144L714.849 67.144L713.093 64.712ZM745.989 61.768L745.106 64.6353C745.111 64.6369 745.116 64.6384 745.122 64.64L745.989 61.768ZM749.957 74.568L747.397 73.0036C747.386 73.0211 747.376 73.0387 747.365 73.0564L749.957 74.568ZM746.245 79.56L744.782 82.1796C745.552 82.6093 746.472 82.6786 747.298 82.369L746.245 79.56ZM732.165 81.608L730.158 83.8379C730.235 83.9075 730.316 83.973 730.4 84.0342L732.165 81.608ZM737.157 84.296L735.893 87.017C735.92 87.0296 735.947 87.0417 735.975 87.0534L737.157 84.296ZM743.045 87.112L741.588 89.7345C741.607 89.7455 741.627 89.7562 741.647 89.7668L743.045 87.112ZM748.421 90.696L750.283 88.3439C750.278 88.3404 750.274 88.3369 750.269 88.3335L748.421 90.696ZM747.781 120.008L749.817 122.211C749.825 122.204 749.832 122.197 749.839 122.19L747.781 120.008ZM710.789 123.208L711.936 120.436L710.789 123.208ZM705.029 107.208L702.294 105.973C702.283 105.998 702.272 106.023 702.262 106.048L705.029 107.208ZM708.613 101.96L707.06 104.527C714.052 108.757 720.116 111.232 724.997 111.232V108.232V105.232C721.856 105.232 716.997 103.526 710.165 99.3931L708.613 101.96ZM724.997 108.232V111.232C726.535 111.232 728.223 110.979 729.597 110.018C731.166 108.919 731.837 107.253 731.837 105.544H728.837H725.837C725.837 105.635 725.821 105.571 725.888 105.43C725.962 105.274 726.073 105.16 726.156 105.102C726.22 105.058 726.196 105.096 725.995 105.142C725.793 105.19 725.471 105.232 724.997 105.232V108.232ZM728.837 105.544H731.837C731.837 104.341 731.319 103.374 730.816 102.706C730.307 102.03 729.651 101.445 728.973 100.936C727.613 99.9164 725.727 98.8846 723.438 97.8281L722.181 100.552L720.923 103.276C723.072 104.267 724.513 105.092 725.373 105.736C725.803 106.059 725.979 106.257 726.025 106.318C726.077 106.386 725.837 106.107 725.837 105.544H728.837ZM722.181 100.552L723.314 97.7743C718.339 95.7446 714.84 93.1628 712.582 90.1463C710.347 87.1606 709.181 83.5537 709.181 79.176H706.181H703.181C703.181 84.697 704.68 89.6021 707.779 93.7417C710.854 97.8506 715.355 101.007 721.047 103.33L722.181 100.552ZM706.181 79.176H709.181C709.181 73.7008 711.117 69.8392 714.849 67.144L713.093 64.712L711.336 62.28C705.852 66.2408 703.181 72.0219 703.181 79.176H706.181ZM713.093 64.712L714.849 67.144C718.882 64.231 723.752 62.72 729.605 62.72V59.72V56.72C722.657 56.72 716.519 58.537 711.336 62.28L713.093 64.712ZM729.605 59.72V62.72C735.9 62.72 741.043 63.3851 745.106 64.6353L745.989 61.768L746.871 58.9007C742.059 57.4202 736.28 56.72 729.605 56.72V59.72ZM745.989 61.768L745.122 64.64C747.222 65.2741 748.508 65.9284 749.213 66.4872C749.549 66.7529 749.685 66.9444 749.735 67.0334C749.774 67.1027 749.773 67.1254 749.773 67.144H752.773H755.773C755.773 64.8567 754.555 63.0646 752.94 61.7848C751.384 60.5516 749.278 59.6272 746.856 58.896L745.989 61.768ZM752.773 67.144H749.773C749.773 68.1605 749.207 70.041 747.397 73.0036L749.957 74.568L752.516 76.1323C754.461 72.951 755.773 69.8822 755.773 67.144H752.773ZM749.957 74.568L747.365 73.0564C746.492 74.5537 745.799 75.6282 745.277 76.3299C745.015 76.6829 744.837 76.8847 744.739 76.9827C744.585 77.1366 744.749 76.9169 745.191 76.751L746.245 79.56L747.298 82.369C748.082 82.0751 748.656 81.5514 748.982 81.2253C749.364 80.8433 749.736 80.3891 750.092 79.9101C750.808 78.9478 751.629 77.6543 752.548 76.0796L749.957 74.568ZM746.245 79.56L747.707 76.9404C743.583 74.639 739.111 73.488 734.341 73.488V76.488V79.488C738.104 79.488 741.567 80.385 744.782 82.1796L746.245 79.56ZM734.341 76.488V73.488C732.928 73.488 731.333 73.7199 730.022 74.6426C728.518 75.7009 727.885 77.3029 727.885 78.92H730.885H733.885C733.885 78.8692 733.893 78.969 733.812 79.1403C733.723 79.3268 733.59 79.4685 733.475 79.5494C733.379 79.617 733.362 79.5963 733.514 79.5607C733.666 79.525 733.931 79.488 734.341 79.488V76.488ZM730.885 78.92H727.885C727.885 80.9026 728.757 82.5776 730.158 83.8379L732.165 81.608L734.171 79.3781C733.865 79.1024 733.885 78.9854 733.885 78.92H730.885ZM732.165 81.608L730.4 84.0342C731.595 84.9031 733.492 85.9022 735.893 87.017L737.157 84.296L738.42 81.575C736.042 80.4711 734.612 79.6782 733.929 79.1818L732.165 81.608ZM737.157 84.296L735.975 87.0534C738.31 88.0543 740.172 88.9482 741.588 89.7345L743.045 87.112L744.501 84.4895C742.845 83.5692 740.782 82.5857 738.338 81.5386L737.157 84.296ZM743.045 87.112L741.647 89.7668C743.065 90.5127 744.704 91.5967 746.572 93.0585L748.421 90.696L750.269 88.3335C748.212 86.7233 746.267 85.418 744.442 84.4572L743.045 87.112ZM748.421 90.696L746.558 93.0481C749.939 95.7242 751.565 99.0833 751.565 103.368H754.565H757.565C757.565 97.2421 755.094 92.1531 750.283 88.3439L748.421 90.696ZM754.565 103.368H751.565C751.565 109.458 749.581 114.185 745.722 117.826L747.781 120.008L749.839 122.19C755.025 117.298 757.565 110.931 757.565 103.368H754.565ZM747.781 120.008L745.744 117.805C741.992 121.274 736.034 123.28 727.301 123.28V126.28V129.28C736.829 129.28 744.524 127.104 749.817 122.211L747.781 120.008ZM727.301 126.28V123.28C721.584 123.28 716.477 122.315 711.936 120.436L710.789 123.208L709.641 125.98C714.999 128.197 720.9 129.28 727.301 129.28V126.28ZM710.789 123.208L711.936 120.436C707.466 118.587 706.365 116.561 706.365 114.76H703.365H700.365C700.365 120.127 704.212 123.733 709.641 125.98L710.789 123.208ZM703.365 114.76H706.365C706.365 112.84 706.81 110.718 707.795 108.368L705.029 107.208L702.262 106.048C701.029 108.988 700.365 111.901 700.365 114.76H703.365ZM705.029 107.208L707.763 108.443C708.914 105.893 709.841 104.769 710.356 104.401L708.613 101.96L706.869 99.5188C704.995 100.857 703.532 103.232 702.294 105.973L705.029 107.208Z" fill="white"/>
</svg>
